<svg width="352" height="352" xmlns="http://www.w3.org/2000/svg" xmlns:xlink="http://www.w3.org/1999/xlink" xml:space="preserve" overflow="hidden"><g><g><path d="M176 227.333C147.767 227.333 124.667 204.233 124.667 176 124.667 147.767 147.767 124.667 176 124.667 204.233 124.667 227.333 147.767 227.333 176 227.333 204.233 204.233 227.333 176 227.333ZM176 36.6667C99 36.6667 36.6667 99 36.6667 176 36.6667 253 99 315.333 176 315.333 253 315.333 315.333 253 315.333 176 315.333 99 253 36.6667 176 36.6667Z" fill="#84E291" fill-rule="nonzero" fill-opacity="1"/><path d="M176 190.667C167.933 190.667 161.333 184.067 161.333 176 161.333 167.933 167.933 161.333 176 161.333 184.067 161.333 190.667 167.933 190.667 176 190.667 184.067 184.067 190.667 176 190.667ZM176 139.333C155.833 139.333 139.333 155.833 139.333 176 139.333 196.167 155.833 212.667 176 212.667 196.167 212.667 212.667 196.167 212.667 176 212.667 155.833 196.167 139.333 176 139.333Z" fill="#84E291" fill-rule="nonzero" fill-opacity="1"/></g></g></svg>